<svg id="visual" viewBox="0 0 900 200" width="900" height="200" xmlns="http://www.w3.org/2000/svg"
	xmlns:xlink="http://www.w3.org/1999/xlink" version="1.1">
	<rect x="0" y="0" width="900" height="200" fill="#9a94bc"></rect>
	<path
		d="M0 88L21.5 86.5C43 85 86 82 128.8 81.2C171.7 80.3 214.3 81.7 257.2 83.2C300 84.7 343 86.3 385.8 84.5C428.7 82.7 471.3 77.3 514.2 76.5C557 75.7 600 79.3 642.8 82.8C685.7 86.3 728.3 89.7 771.2 88.7C814 87.7 857 82.3 878.5 79.7L900 77L900 201L878.5 201C857 201 814 201 771.2 201C728.3 201 685.7 201 642.8 201C600 201 557 201 514.2 201C471.3 201 428.7 201 385.8 201C343 201 300 201 257.2 201C214.3 201 171.7 201 128.8 201C86 201 43 201 21.5 201L0 201Z"
		fill="#91b9de"></path>
	<path
		d="M0 106L21.5 104.3C43 102.7 86 99.3 128.8 100C171.7 100.7 214.3 105.3 257.2 106C300 106.7 343 103.3 385.8 102.3C428.7 101.3 471.3 102.7 514.2 104.7C557 106.7 600 109.3 642.8 108.7C685.7 108 728.3 104 771.2 103.8C814 103.7 857 107.3 878.5 109.2L900 111L900 201L878.5 201C857 201 814 201 771.2 201C728.3 201 685.7 201 642.8 201C600 201 557 201 514.2 201C471.3 201 428.7 201 385.8 201C343 201 300 201 257.2 201C214.3 201 171.7 201 128.8 201C86 201 43 201 21.5 201L0 201Z"
		fill="#99cae5"></path>
	<path
		d="M0 137L21.5 136.3C43 135.7 86 134.3 128.8 134C171.7 133.7 214.3 134.3 257.2 131.8C300 129.3 343 123.7 385.8 124.3C428.7 125 471.3 132 514.2 135.5C557 139 600 139 642.8 136.3C685.7 133.7 728.3 128.3 771.2 128.2C814 128 857 133 878.5 135.5L900 138L900 201L878.5 201C857 201 814 201 771.2 201C728.3 201 685.7 201 642.8 201C600 201 557 201 514.2 201C471.3 201 428.7 201 385.8 201C343 201 300 201 257.2 201C214.3 201 171.7 201 128.8 201C86 201 43 201 21.5 201L0 201Z"
		fill="#a7daea"></path>
	<path
		d="M0 153L21.5 154.2C43 155.3 86 157.7 128.8 158.2C171.7 158.7 214.3 157.3 257.2 157C300 156.7 343 157.3 385.8 158.3C428.7 159.3 471.3 160.7 514.2 159.5C557 158.3 600 154.7 642.8 153.3C685.7 152 728.3 153 771.2 152.3C814 151.7 857 149.3 878.5 148.2L900 147L900 201L878.5 201C857 201 814 201 771.2 201C728.3 201 685.7 201 642.8 201C600 201 557 201 514.2 201C471.3 201 428.7 201 385.8 201C343 201 300 201 257.2 201C214.3 201 171.7 201 128.8 201C86 201 43 201 21.5 201L0 201Z"
		fill="#bae9f0"></path>
	<path
		d="M0 164L21.5 164.2C43 164.3 86 164.7 128.8 167C171.7 169.3 214.3 173.7 257.2 174.7C300 175.7 343 173.3 385.8 171.7C428.7 170 471.3 169 514.2 169.2C557 169.3 600 170.7 642.8 173.5C685.7 176.3 728.3 180.7 771.2 180.7C814 180.7 857 176.3 878.5 174.2L900 172L900 201L878.5 201C857 201 814 201 771.2 201C728.3 201 685.7 201 642.8 201C600 201 557 201 514.2 201C471.3 201 428.7 201 385.8 201C343 201 300 201 257.2 201C214.3 201 171.7 201 128.8 201C86 201 43 201 21.5 201L0 201Z"
		fill="#cff7f6"></path>
</svg>