<svg id="visual" viewBox="0 0 900 450" width="900" height="450" xmlns="http://www.w3.org/2000/svg" xmlns:xlink="http://www.w3.org/1999/xlink" version="1.1"><rect x="0" y="0" width="900" height="450" fill="#140b14"></rect><path d="M0 117L21.5 118.8C43 120.7 86 124.3 128.8 124C171.7 123.7 214.3 119.3 257.2 116C300 112.7 343 110.3 385.8 114.2C428.7 118 471.3 128 514.2 132.8C557 137.7 600 137.3 642.8 134.3C685.7 131.3 728.3 125.7 771.2 120.8C814 116 857 112 878.5 110L900 108L900 0L878.5 0C857 0 814 0 771.2 0C728.3 0 685.7 0 642.8 0C600 0 557 0 514.2 0C471.3 0 428.7 0 385.8 0C343 0 300 0 257.2 0C214.3 0 171.7 0 128.8 0C86 0 43 0 21.5 0L0 0Z" fill="#9a94bc"></path><path d="M0 93L21.5 92C43 91 86 89 128.8 89.2C171.7 89.3 214.3 91.7 257.2 92.7C300 93.7 343 93.3 385.8 93.8C428.7 94.3 471.3 95.7 514.2 96.8C557 98 600 99 642.8 98.3C685.7 97.7 728.3 95.3 771.2 92.2C814 89 857 85 878.5 83L900 81L900 0L878.5 0C857 0 814 0 771.2 0C728.3 0 685.7 0 642.8 0C600 0 557 0 514.2 0C471.3 0 428.7 0 385.8 0C343 0 300 0 257.2 0C214.3 0 171.7 0 128.8 0C86 0 43 0 21.5 0L0 0Z" fill="#98a0c9"></path><path d="M0 68L21.5 65.7C43 63.3 86 58.7 128.8 56.7C171.7 54.7 214.3 55.3 257.2 56.8C300 58.3 343 60.7 385.8 64.7C428.7 68.7 471.3 74.3 514.2 75.7C557 77 600 74 642.8 71.8C685.7 69.7 728.3 68.3 771.2 65.7C814 63 857 59 878.5 57L900 55L900 0L878.5 0C857 0 814 0 771.2 0C728.3 0 685.7 0 642.8 0C600 0 557 0 514.2 0C471.3 0 428.7 0 385.8 0C343 0 300 0 257.2 0C214.3 0 171.7 0 128.8 0C86 0 43 0 21.5 0L0 0Z" fill="#94acd5"></path><path d="M0 44L21.5 44.3C43 44.7 86 45.3 128.8 45.3C171.7 45.3 214.3 44.7 257.2 40.7C300 36.7 343 29.3 385.8 26.7C428.7 24 471.3 26 514.2 28.5C557 31 600 34 642.8 37.3C685.7 40.7 728.3 44.3 771.2 42.2C814 40 857 32 878.5 28L900 24L900 0L878.5 0C857 0 814 0 771.2 0C728.3 0 685.7 0 642.8 0C600 0 557 0 514.2 0C471.3 0 428.7 0 385.8 0C343 0 300 0 257.2 0C214.3 0 171.7 0 128.8 0C86 0 43 0 21.5 0L0 0Z" fill="#91b9de"></path></svg>